<svg xmlns="http://www.w3.org/2000/svg" xmlns:xlink="http://www.w3.org/1999/xlink" id="body_1" width="30" height="24">

<g transform="matrix(0.69767445 0 0 0.68571436 0 0)">
	<g transform="matrix(0.30281693 0 0 0.30172414 0 0)">
		<g transform="matrix(0.66355145 0 0 0.66355145 -0 1.2056029)">
			<g transform="matrix(0.1 0 -0 -0.1 0 173)">
                <path d="M772 1700C 723 1680 133 1336 106 1311C 51 1261 34 1179 66 1117C 113 1026 605 182 623 163C 652 131 723 106 766 113C 820 122 1454 494 1482 533C 1498 555 1505 583 1508 625L1508 625L1511 685L1240 1155C 1091 1414 954 1640 937 1658C 893 1703 825 1721 772 1700z" stroke="none" fill="#fce95f" fill-rule="nonzero"/>
                <path d="M1191 1453C 1209 1421 1309 1249 1412 1070C 1516 891 1605 727 1611 705C 1638 607 1594 475 1516 418C 1495 403 1386 338 1274 273C 1162 208 1071 151 1073 145C 1083 114 1154 109 1540 112C 1921 115 1925 115 1962 138C 1983 151 2007 178 2019 204C 2039 245 2040 260 2040 810C 2040 1360 2039 1375 2019 1416C 2007 1442 1983 1469 1962 1482C 1925 1505 1921 1505 1542 1508L1542 1508L1158 1511L1191 1453z" stroke="none" fill="#fce95f" fill-rule="nonzero"/>
			</g>
		</g>
	</g>
</g>
</svg>